<svg xmlns="http://www.w3.org/2000/svg" xml:space="preserve" width="464" height="152" version="1.1" viewBox="0 0 752 247" xmlns:xlink="http://www.w3.org/1999/xlink">
  <defs>
    <style type="text/css"><![CDATA[
      .str0 {stroke:#002738;stroke-width:3.48124;stroke-linecap:round;stroke-linejoin:round;stroke-dasharray:3.481243 10.443730}
      .str1 {stroke:#002738;stroke-width:3.48124;stroke-linecap:round;stroke-linejoin:round;stroke-dasharray:3.481243 10.443730}
      .str2 {stroke:#002738;stroke-width:3.82554;stroke-linecap:round;stroke-linejoin:round;stroke-dasharray:3.825542 11.476626}
      .fil1 {fill:none}
      .fil2 {fill:#002738}
      .fil0 {fill:#002738;fill-rule:nonzero}
    ]]></style>
  </defs>
  <g id="Capa_x0020_1">
    <metadata id="CorelCorpID_0Corel-Layer"/>
    <path class="fil0" d="M37 247l15 0 -13 -20c8,-3 12,-10 12,-19 0,-14 -9,-21 -25,-21l-26 0 0 60 14 0 0 -17 12 0 1 0 10 17zm-23 -29l0 -20 12 0c7,0 12,3 12,10 0,7 -5,10 -12,10l-12 0zm94 -20l0 -11 -45 0 0 60 46 0 0 -12 -33 0 0 -13 29 0 0 -11 -29 0 0 -13 32 0zm13 -11l0 60 25 0c19,0 32,-13 32,-30 0,-18 -13,-30 -32,-30l-25 0zm13 11l12 0c10,0 18,8 18,19 0,11 -7,18 -17,18l-13 0 0 -37z"/>
    <line class="fil1 str0" x1="84" y1="50" x2="121" y2="115"/>
    <line class="fil1 str1" x1="147" y1="78" x2="140" y2="112"/>
    <line class="fil1 str1" x1="136" y1="55" x2="93" y2="39"/>
    <line class="fil1 str2" x1="58" y1="50" x2="45" y2="89"/>
    <line class="fil1 str1" x1="55" y1="130" x2="105" y2="142"/>
    <circle class="fil2" cx="71" cy="31" r="23"/>
    <circle class="fil2" cx="135" cy="142" r="30"/>
    <circle class="fil2" cx="38" cy="113" r="25"/>
    <circle class="fil2" cx="147" cy="64" r="14"/>
    <g id="_1492469209504">
      <path class="fil2" d="M233 194l0 -3 -16 0 0 3 6 0 0 17 4 0 0 -17 6 0zm18 0l0 -3 -15 0 0 20 15 0 0 -3 -11 0 0 -6 10 0 0 -3 -10 0 0 -5 11 0zm14 -4c-6,0 -11,5 -11,11 0,6 5,10 11,10 3,0 6,-1 8,-3l-2 -2c-2,1 -4,2 -6,2 -4,0 -8,-3 -8,-7 0,-4 4,-7 8,-7 2,0 4,1 6,2l2 -2c-2,-2 -5,-4 -8,-4zm29 21l0 -20 -3 0 0 14 -11 -14 -4 0 0 20 4 0 0 -15 11 15 3 0zm15 -21c-6,0 -11,5 -11,11 0,6 5,10 11,10 6,0 11,-4 11,-10 0,-6 -5,-11 -11,-11zm0 4c4,0 7,3 7,7 0,4 -3,7 -7,7 -4,0 -8,-3 -8,-7 0,-4 4,-7 8,-7zm18 14l0 -17 -4 0 0 20 13 0 0 -3 -9 0zm21 -18c-6,0 -11,5 -11,11 0,6 5,10 11,10 7,0 11,-4 11,-10 0,-6 -4,-11 -11,-11zm0 4c4,0 8,3 8,7 0,4 -4,7 -8,7 -4,0 -7,-3 -7,-7 0,-4 3,-7 7,-7zm28 7l0 6c-1,1 -3,1 -4,1 -5,0 -8,-3 -8,-7 0,-4 3,-7 8,-7 2,0 4,0 6,2l2 -3c-3,-1 -5,-3 -8,-3 -7,0 -11,5 -11,11 0,6 4,10 10,10 3,0 6,-1 8,-2l0 -8 -3 0zm12 10l0 -20 -4 0 0 20 4 0zm19 -5l2 5 3 0 -9 -20 -3 0 -9 20 3 0 2 -5 11 0zm-2 -3l-8 0 4 -9 4 9zm17 -13c-5,0 -8,3 -8,6 0,7 11,5 11,9 0,2 -1,3 -4,3 -2,0 -5,-1 -7,-3l-1 3c2,2 5,3 8,3 5,0 8,-2 8,-6 0,-7 -11,-5 -11,-9 0,-2 1,-2 3,-2 2,0 4,0 6,2l2 -4c-2,-1 -5,-2 -7,-2zm19 1l0 20 8 0c6,0 11,-4 11,-10 0,-6 -5,-10 -11,-10l-8 0zm3 3l5 0c4,0 7,3 7,7 0,4 -3,7 -7,7l-5 0 0 -14zm34 0l0 -3 -14 0 0 20 15 0 0 -3 -12 0 0 -6 10 0 0 -3 -10 0 0 -5 11 0zm16 14l0 -17 -3 0 0 20 12 0 0 -3 -9 0zm26 -2l2 5 4 0 -10 -20 -3 0 -9 20 3 0 2 -5 11 0zm-1 -3l-8 0 4 -9 4 9zm20 8l0 -20 -3 0 0 20 3 0zm24 0l0 -20 -4 0 0 14 -11 -14 -3 0 0 20 3 0 0 -15 11 15 4 0zm19 -17l0 -3 -14 0 0 20 4 0 0 -8 9 0 0 -3 -9 0 0 -6 10 0zm12 -4c-6,0 -11,5 -11,11 0,6 5,10 11,10 6,0 11,-4 11,-10 0,-6 -5,-11 -11,-11zm0 4c4,0 8,3 8,7 0,4 -4,7 -8,7 -4,0 -7,-3 -7,-7 0,-4 3,-7 7,-7zm28 17l4 0 -5 -7c3,-1 5,-3 5,-6 0,-5 -3,-7 -9,-7l-8 0 0 20 3 0 0 -6 5 0c1,0 1,0 1,0l4 6zm-10 -9l0 -8 5 0c4,0 5,1 5,4 0,2 -1,4 -5,4l-5 0zm40 9l0 -20 -4 0 -7 13 -7 -13 -4 0 0 20 4 0 0 -15 6 13 2 0 7 -13 0 15 3 0zm19 -5l2 5 4 0 -9 -20 -4 0 -9 20 4 0 2 -5 10 0zm-1 -3l-8 0 4 -9 4 9zm18 -13c-6,0 -11,5 -11,11 0,6 5,10 11,10 3,0 6,-1 8,-3l-2 -2c-2,1 -4,2 -6,2 -4,0 -7,-3 -7,-7 0,-4 3,-7 7,-7 2,0 4,1 6,2l2 -2c-2,-2 -5,-4 -8,-4zm15 21l0 -20 -4 0 0 20 4 0zm15 -21c-7,0 -11,5 -11,11 0,6 4,10 11,10 6,0 10,-4 10,-10 0,-6 -4,-11 -10,-11zm0 4c4,0 7,3 7,7 0,4 -3,7 -7,7 -4,0 -8,-3 -8,-7 0,-4 4,-7 8,-7zm32 17l0 -20 -3 0 0 14 -11 -14 -4 0 0 20 4 0 0 -15 11 15 3 0zm-522 29l7 -14 -3 0 -6 10 -6 -10 -4 0 8 14 0 7 4 0 0 -7zm32 -14c-6,0 -11,4 -11,10 0,6 5,11 11,11 3,0 6,-2 8,-4l-2 -2c-2,2 -4,2 -6,2 -4,0 -7,-3 -7,-7 0,-4 3,-7 7,-7 2,0 4,1 6,3l2 -3c-2,-2 -5,-3 -8,-3zm20 0c-6,0 -11,4 -11,10 0,6 5,11 11,11 6,0 11,-5 11,-11 0,-6 -5,-10 -11,-10zm0 3c4,0 7,3 7,7 0,4 -3,8 -7,8 -4,0 -7,-4 -7,-8 0,-4 3,-7 7,-7zm37 18l0 -21 -5 0 -6 14 -7 -14 -4 0 0 21 3 0 0 -16 6 13 3 0 6 -13 0 16 4 0zm23 -21l-4 0 0 12c0,3 -2,6 -5,6 -4,0 -6,-3 -6,-6l0 -12 -3 0 0 12c0,5 3,9 9,9 5,0 9,-4 9,-9l0 -12zm22 21l0 -21 -3 0 0 15 -11 -15 -3 0 0 21 3 0 0 -15 11 15 3 0zm9 0l0 -21 -3 0 0 21 3 0zm15 -21c-6,0 -11,4 -11,10 0,6 5,11 11,11 3,0 6,-2 8,-4l-2 -2c-2,2 -4,2 -6,2 -4,0 -7,-3 -7,-7 0,-4 3,-7 7,-7 2,0 4,1 6,3l2 -3c-2,-2 -5,-3 -8,-3zm25 16l2 5 3 0 -9 -21 -3 0 -9 21 3 0 2 -5 11 0zm-2 -3l-8 0 4 -9 4 9zm19 -13c-7,0 -11,4 -11,10 0,6 4,11 10,11 3,0 6,-2 8,-4l-2 -2c-1,2 -3,2 -5,2 -4,0 -8,-3 -8,-7 0,-4 4,-7 8,-7 2,0 4,1 5,3l2 -3c-2,-2 -5,-3 -7,-3zm14 21l0 -21 -3 0 0 21 3 0zm15 -21c-6,0 -11,4 -11,10 0,6 5,11 11,11 6,0 11,-5 11,-11 0,-6 -5,-10 -11,-10zm0 3c4,0 8,3 8,7 0,4 -4,8 -8,8 -4,0 -7,-4 -7,-8 0,-4 3,-7 7,-7zm33 18l0 -21 -4 0 0 15 -11 -15 -3 0 0 21 3 0 0 -15 11 15 4 0zm18 -21l0 21 3 0 0 -7 5 0c5,0 8,-2 8,-7 0,-5 -3,-7 -8,-7l-8 0zm3 3l5 0c3,0 5,1 5,4 0,3 -2,4 -5,4l-5 0 0 -8zm29 13l2 5 3 0 -9 -21 -3 0 -9 21 3 0 2 -5 11 0zm-2 -3l-7 0 4 -9 3 9zm23 8l4 0 -4 -7c2,-1 4,-4 4,-7 0,-5 -3,-7 -8,-7l-9 0 0 21 4 0 0 -7 5 0c0,0 0,0 1,0l3 7zm-9 -10l0 -8 5 0c3,0 5,1 5,4 0,3 -2,4 -5,4l-5 0zm31 5l2 5 4 0 -9 -21 -4 0 -9 21 4 0 2 -5 10 0zm-1 -3l-8 0 4 -9 4 9zm26 4l0 -17 -4 0 0 21 12 0 0 -4 -8 0zm25 -1l2 5 4 0 -9 -21 -4 0 -9 21 4 0 2 -5 10 0zm-1 -3l-8 0 4 -9 4 9zm29 -13c-4,0 -7,2 -7,5 0,8 11,5 11,10 0,1 -2,2 -4,2 -2,0 -5,-1 -7,-3l-1 3c2,2 5,4 8,4 4,0 8,-3 8,-6 0,-8 -11,-5 -11,-10 0,-1 1,-2 3,-2 2,0 4,1 6,2l1 -3c-1,-1 -4,-2 -7,-2zm25 16l2 5 4 0 -9 -21 -4 0 -9 21 4 0 2 -5 10 0zm-1 -3l-8 0 4 -9 4 9zm13 4l0 -17 -4 0 0 21 13 0 0 -4 -9 0zm30 -17l-4 0 0 12c0,3 -2,6 -5,6 -4,0 -6,-3 -6,-6l0 -12 -3 0 0 12c0,5 3,9 9,9 5,0 9,-4 9,-9l0 -12zm5 0l0 21 8 0c6,0 11,-5 11,-11 0,-6 -5,-10 -11,-10l-8 0zm3 3l5 0c4,0 7,3 7,7 0,4 -3,7 -7,7l-5 0 0 -14z"/>
      <g>
        <polygon class="fil2" points="357,39 357,7 216,7 216,39 268,39 268,175 305,175 305,39"/>
        <polygon class="fil2" points="417,175 417,59 379,59 379,175"/>
        <path class="fil2" d="M534 6c-51,0 -89,36 -89,85 0,49 38,86 88,86 24,0 50,-12 68,-30l-23 -25c-12,12 -28,20 -43,20 -29,0 -51,-22 -51,-52 0,-29 22,-51 51,-51 15,0 32,8 43,22l22 -27c-16,-17 -42,-28 -66,-28z"/>
        <path class="fil2" d="M687 6c-39,0 -65,19 -65,49 0,60 89,41 89,73 0,10 -9,16 -25,16 -17,0 -42,-10 -59,-25l-15 31c19,16 46,26 74,26 37,0 66,-18 66,-50 0,-61 -90,-44 -90,-74 0,-10 9,-14 22,-14 13,0 34,7 52,17l15 -31c-17,-11 -41,-18 -64,-18z"/>
        <path class="fil2" d="M400 0c12,0 22,10 22,22 0,13 -10,23 -22,23 -12,0 -22,-10 -22,-23 0,-12 10,-22 22,-22z"/>
      </g>
    </g>
  </g>
</svg>
